<?xml version="1.0" encoding="UTF-8"?>
<svg id="Departement_2" xmlns="http://www.w3.org/2000/svg" width="63.85mm" height="20.37mm" viewBox="0 0 181 57.75">
  <defs>
    <style>
      .cls-1 {
        fill: #1a171b;
      }
    </style>
  </defs>
  <g>
    <path class="cls-1" d="M43.83,33v-4.65h1.76c.31,0,.54.01.71.04.23.04.42.11.57.22.15.11.28.26.37.45s.14.4.14.63c0,.4-.13.73-.38,1s-.71.41-1.36.41h-1.19v1.89h-.62ZM44.44,30.56h1.2c.4,0,.68-.07.85-.22.17-.15.25-.36.25-.62,0-.19-.05-.36-.15-.5-.1-.14-.23-.23-.39-.27-.1-.03-.29-.04-.57-.04h-1.19v1.66Z"/>
    <path class="cls-1" d="M48.11,33v-3.37h.51v.51c.13-.24.25-.4.36-.47.11-.08.23-.11.37-.11.19,0,.39.06.59.18l-.2.53c-.14-.08-.28-.12-.42-.12-.12,0-.24.04-.34.11s-.17.18-.21.31c-.06.2-.1.43-.1.67v1.76h-.57Z"/>
    <path class="cls-1" d="M52.51,32.58c-.21.18-.42.31-.61.38-.2.07-.41.11-.63.11-.37,0-.65-.09-.85-.27-.2-.18-.3-.41-.3-.69,0-.17.04-.32.11-.45.08-.14.17-.25.29-.33s.26-.15.41-.19c.11-.03.28-.06.51-.09.46-.06.8-.12,1.02-.2,0-.08,0-.13,0-.15,0-.23-.05-.4-.16-.49-.15-.13-.36-.19-.65-.19-.27,0-.47.05-.6.14s-.22.26-.28.5l-.56-.08c.05-.24.13-.43.25-.58s.28-.26.5-.34c.22-.08.47-.12.76-.12s.52.03.7.1c.18.07.31.15.4.26s.14.23.18.39c.02.1.03.27.03.53v.76c0,.53.01.87.04,1.01s.07.28.14.4h-.6c-.06-.12-.1-.26-.11-.42ZM52.46,31.3c-.21.08-.52.16-.93.22-.24.03-.4.07-.5.11-.1.04-.17.1-.23.19-.05.08-.08.17-.08.27,0,.15.06.28.17.38s.28.15.51.15.42-.05.59-.14c.17-.1.3-.23.38-.4.06-.13.09-.32.09-.57v-.21ZM50.78,28.97v-.65h.6v.65h-.6ZM51.96,28.97v-.65h.6v.65h-.6Z"/>
    <path class="cls-1" d="M53.72,31.99l.56-.09c.03.23.12.4.27.52.15.12.35.18.61.18s.46-.05.58-.16.19-.23.19-.38c0-.13-.06-.23-.17-.3-.08-.05-.27-.12-.58-.19-.42-.11-.71-.2-.87-.27-.16-.08-.28-.18-.37-.32-.08-.14-.13-.29-.13-.45,0-.15.03-.29.1-.42s.16-.23.28-.32c.09-.07.21-.12.36-.17s.32-.07.49-.07c.26,0,.5.04.7.11.2.08.35.18.44.31.09.13.16.3.2.52l-.56.08c-.03-.17-.1-.31-.22-.41s-.29-.15-.52-.15c-.26,0-.45.04-.56.13-.11.09-.17.19-.17.3,0,.07.02.14.07.2.05.06.12.11.22.15.06.02.23.07.5.15.4.11.69.2.85.27s.29.17.38.3.14.29.14.49-.06.37-.17.54c-.11.17-.27.3-.48.39-.21.09-.45.14-.71.14-.44,0-.77-.09-1-.27s-.38-.45-.44-.81Z"/>
    <path class="cls-1" d="M57.23,29v-.66h.57v.66h-.57ZM57.23,33v-3.37h.57v3.37h-.57Z"/>
    <path class="cls-1" d="M60.88,33v-.43c-.21.33-.53.5-.94.5-.27,0-.52-.07-.74-.22-.23-.15-.4-.35-.52-.62-.12-.27-.19-.57-.19-.92s.06-.64.17-.92c.11-.27.28-.48.5-.63.22-.15.48-.22.75-.22.2,0,.38.04.54.13.16.09.29.2.39.33v-1.67h.57v4.65h-.53ZM59.07,31.31c0,.43.09.75.27.97.18.21.4.32.64.32s.46-.1.64-.31c.17-.2.26-.52.26-.94,0-.46-.09-.8-.27-1.02s-.4-.32-.66-.32-.47.1-.64.31c-.17.21-.26.53-.26.98Z"/>
    <path class="cls-1" d="M62.34,29v-.66h.57v.66h-.57ZM62.34,33v-3.37h.57v3.37h-.57Z"/>
    <path class="cls-1" d="M66,32.58c-.21.18-.42.31-.61.38-.2.07-.41.11-.63.11-.37,0-.65-.09-.85-.27-.2-.18-.3-.41-.3-.69,0-.17.04-.32.11-.45.08-.14.17-.25.29-.33s.26-.15.41-.19c.11-.03.28-.06.51-.09.46-.06.8-.12,1.02-.2,0-.08,0-.13,0-.15,0-.23-.05-.4-.16-.49-.15-.13-.36-.19-.65-.19-.27,0-.47.05-.6.14s-.22.26-.28.5l-.56-.08c.05-.24.13-.43.25-.58s.28-.26.5-.34c.22-.08.47-.12.76-.12s.52.03.7.1c.18.07.31.15.4.26s.14.23.18.39c.02.1.03.27.03.53v.76c0,.53.01.87.04,1.01s.07.28.14.4h-.6c-.06-.12-.1-.26-.11-.42ZM65.96,31.3c-.21.08-.52.16-.93.22-.24.03-.4.07-.5.11-.1.04-.17.1-.23.19-.05.08-.08.17-.08.27,0,.15.06.28.17.38s.28.15.51.15.42-.05.59-.14c.17-.1.3-.23.38-.4.06-.13.09-.32.09-.57v-.21Z"/>
    <path class="cls-1" d="M67.43,33v-4.65h.57v4.65h-.57Z"/>
    <path class="cls-1" d="M71.1,33v-.43c-.21.33-.53.5-.94.5-.27,0-.52-.07-.74-.22-.23-.15-.4-.35-.52-.62-.12-.27-.19-.57-.19-.92s.06-.64.17-.92c.11-.27.28-.48.5-.63.22-.15.48-.22.75-.22.2,0,.38.04.54.13.16.09.29.2.39.33v-1.67h.57v4.65h-.53ZM69.3,31.31c0,.43.09.75.27.97.18.21.4.32.64.32s.46-.1.64-.31c.17-.2.26-.52.26-.94,0-.46-.09-.8-.27-1.02s-.4-.32-.66-.32-.47.1-.64.31c-.17.21-.26.53-.26.98Z"/>
    <path class="cls-1" d="M74.87,31.91l.59.07c-.09.35-.27.61-.52.8-.25.19-.57.29-.96.29-.49,0-.88-.15-1.17-.46-.29-.3-.43-.73-.43-1.28s.15-1.01.44-1.32.67-.47,1.14-.47.82.15,1.1.46c.29.31.43.74.43,1.29,0,.03,0,.08,0,.15h-2.51c.02.37.13.65.31.85.19.2.42.29.7.29.21,0,.39-.06.54-.17.15-.11.27-.29.35-.53ZM72.99,30.99h1.88c-.03-.28-.1-.5-.22-.64-.18-.22-.42-.33-.71-.33-.26,0-.48.09-.66.26-.18.18-.28.41-.3.71Z"/>
    <path class="cls-1" d="M76.2,34.29v-4.66h.52v.44c.12-.17.26-.3.42-.39.15-.09.34-.13.56-.13.29,0,.54.07.76.22.22.15.39.36.5.63.11.27.17.57.17.89,0,.35-.06.66-.19.93-.12.28-.3.49-.54.63s-.48.22-.74.22c-.19,0-.36-.04-.51-.12s-.28-.18-.37-.3v1.64h-.57ZM76.72,31.33c0,.43.09.75.26.96.18.21.39.31.64.31s.47-.11.65-.32c.18-.21.27-.55.27-1s-.09-.75-.26-.96-.39-.32-.63-.32-.46.11-.65.34c-.19.23-.28.56-.28.99Z"/>
    <path class="cls-1" d="M82.04,32.58c-.21.18-.42.31-.61.38-.2.07-.41.11-.63.11-.37,0-.65-.09-.85-.27-.2-.18-.3-.41-.3-.69,0-.17.04-.32.11-.45.08-.14.17-.25.29-.33s.26-.15.41-.19c.11-.03.28-.06.51-.09.46-.06.8-.12,1.02-.2,0-.08,0-.13,0-.15,0-.23-.05-.4-.16-.49-.15-.13-.36-.19-.65-.19-.27,0-.47.05-.6.14s-.22.26-.28.5l-.56-.08c.05-.24.13-.43.25-.58s.28-.26.5-.34c.22-.08.47-.12.76-.12s.52.03.7.1c.18.07.31.15.4.26s.14.23.18.39c.02.1.03.27.03.53v.76c0,.53.01.87.04,1.01s.07.28.14.4h-.6c-.06-.12-.1-.26-.11-.42ZM81.99,31.3c-.21.08-.52.16-.93.22-.24.03-.4.07-.5.11-.1.04-.17.1-.23.19-.05.08-.08.17-.08.27,0,.15.06.28.17.38s.28.15.51.15.42-.05.59-.14c.17-.1.3-.23.38-.4.06-.13.09-.32.09-.57v-.21Z"/>
    <path class="cls-1" d="M83.48,33v-3.37h.51v.51c.13-.24.25-.4.36-.47.11-.08.23-.11.37-.11.19,0,.39.06.59.18l-.2.53c-.14-.08-.28-.12-.42-.12-.12,0-.24.04-.34.11s-.17.18-.21.31c-.06.2-.1.43-.1.67v1.76h-.57Z"/>
    <path class="cls-1" d="M86.92,32.49l.08.5c-.16.03-.3.05-.43.05-.21,0-.37-.03-.48-.1-.11-.07-.19-.15-.24-.26s-.07-.33-.07-.67v-1.94h-.42v-.44h.42v-.83l.57-.34v1.18h.57v.44h-.57v1.97c0,.16,0,.27.03.31s.05.08.1.11c.05.03.11.04.19.04.06,0,.15,0,.25-.02Z"/>
    <path class="cls-1" d="M89.81,31.91l.59.07c-.09.35-.27.61-.52.8-.25.19-.57.29-.96.29-.49,0-.88-.15-1.17-.46-.29-.3-.43-.73-.43-1.28s.15-1.01.44-1.32.67-.47,1.14-.47.82.15,1.1.46c.29.31.43.74.43,1.29,0,.03,0,.08,0,.15h-2.51c.02.37.13.65.31.85.19.2.42.29.7.29.21,0,.39-.06.54-.17.15-.11.27-.29.35-.53ZM87.94,30.99h1.88c-.03-.28-.1-.5-.22-.64-.18-.22-.42-.33-.71-.33-.26,0-.48.09-.66.26-.18.18-.28.41-.3.71Z"/>
    <path class="cls-1" d="M91.15,33v-3.37h.51v.47c.11-.17.25-.3.42-.4.18-.1.38-.15.6-.15.25,0,.45.05.61.16.16.1.27.25.34.43.27-.39.61-.59,1.04-.59.33,0,.59.09.77.28.18.19.27.47.27.86v2.31h-.57v-2.12c0-.23-.02-.39-.06-.49s-.1-.18-.2-.24c-.1-.06-.21-.09-.34-.09-.24,0-.43.08-.59.24s-.23.41-.23.76v1.96h-.57v-2.19c0-.25-.05-.44-.14-.57s-.25-.19-.46-.19c-.16,0-.31.04-.45.13-.14.08-.24.21-.3.37-.06.16-.09.4-.09.7v1.75h-.57Z"/>
    <path class="cls-1" d="M98.89,31.91l.59.07c-.09.35-.27.61-.52.8-.25.19-.57.29-.96.29-.49,0-.88-.15-1.17-.46-.29-.3-.43-.73-.43-1.28s.15-1.01.44-1.32.67-.47,1.14-.47.82.15,1.1.46c.29.31.43.74.43,1.29,0,.03,0,.08,0,.15h-2.51c.02.37.13.65.31.85.19.2.42.29.7.29.21,0,.39-.06.54-.17.15-.11.27-.29.35-.53ZM97.02,30.99h1.88c-.03-.28-.1-.5-.22-.64-.18-.22-.42-.33-.71-.33-.26,0-.48.09-.66.26-.18.18-.28.41-.3.71Z"/>
    <path class="cls-1" d="M100.23,33v-3.37h.51v.48c.25-.37.61-.56,1.07-.56.2,0,.39.04.56.11.17.07.3.17.38.29.08.12.14.26.18.42.02.11.03.29.03.56v2.07h-.57v-2.05c0-.23-.02-.41-.07-.52-.04-.12-.12-.21-.24-.28s-.25-.1-.4-.1c-.24,0-.45.08-.63.23-.18.15-.26.45-.26.88v1.84h-.57Z"/>
    <path class="cls-1" d="M105.12,32.49l.08.5c-.16.03-.3.05-.43.05-.21,0-.37-.03-.48-.1-.11-.07-.19-.15-.24-.26s-.07-.33-.07-.67v-1.94h-.42v-.44h.42v-.83l.57-.34v1.18h.57v.44h-.57v1.97c0,.16,0,.27.03.31s.05.08.1.11c.05.03.11.04.19.04.06,0,.15,0,.25-.02Z"/>
    <path class="cls-1" d="M109.72,33v-.43c-.21.33-.53.5-.94.5-.27,0-.52-.07-.74-.22-.23-.15-.4-.35-.52-.62-.12-.27-.19-.57-.19-.92s.06-.64.17-.92c.11-.27.28-.48.5-.63.22-.15.48-.22.75-.22.2,0,.38.04.54.13.16.09.29.2.39.33v-1.67h.57v4.65h-.53ZM107.91,31.31c0,.43.09.75.27.97.18.21.4.32.64.32s.46-.1.64-.31c.17-.2.26-.52.26-.94,0-.46-.09-.8-.27-1.02s-.4-.32-.66-.32-.47.1-.64.31c-.17.21-.26.53-.26.98Z"/>
    <path class="cls-1" d="M113.48,31.91l.59.07c-.09.35-.27.61-.52.8-.25.19-.57.29-.96.29-.49,0-.88-.15-1.17-.46-.29-.3-.43-.73-.43-1.28s.15-1.01.44-1.32.67-.47,1.14-.47.82.15,1.1.46c.29.31.43.74.43,1.29,0,.03,0,.08,0,.15h-2.51c.02.37.13.65.31.85.19.2.42.29.7.29.21,0,.39-.06.54-.17.15-.11.27-.29.35-.53ZM111.6,30.99h1.88c-.03-.28-.1-.5-.22-.64-.18-.22-.42-.33-.71-.33-.26,0-.48.09-.66.26-.18.18-.28.41-.3.71Z"/>
    <path class="cls-1" d="M114.59,31.99l.56-.09c.03.23.12.4.27.52.15.12.35.18.61.18s.46-.05.58-.16.19-.23.19-.38c0-.13-.06-.23-.17-.3-.08-.05-.27-.12-.58-.19-.42-.11-.71-.2-.87-.27-.16-.08-.28-.18-.37-.32-.08-.14-.13-.29-.13-.45,0-.15.03-.29.1-.42s.16-.23.28-.32c.09-.07.21-.12.36-.17s.32-.07.49-.07c.26,0,.5.04.7.11.2.08.35.18.44.31.09.13.16.3.2.52l-.56.08c-.03-.17-.1-.31-.22-.41s-.29-.15-.52-.15c-.26,0-.45.04-.56.13-.11.09-.17.19-.17.3,0,.07.02.14.07.2.05.06.12.11.22.15.06.02.23.07.5.15.4.11.69.2.85.27s.29.17.38.3.14.29.14.49-.06.37-.17.54c-.11.17-.27.3-.48.39-.21.09-.45.14-.71.14-.44,0-.77-.09-1-.27s-.38-.45-.44-.81Z"/>
    <path class="cls-1" d="M119.97,33v-4.65h.62v2.31l2.31-2.31h.83l-1.95,1.89,2.04,2.77h-.81l-1.66-2.35-.76.74v1.61h-.62Z"/>
    <path class="cls-1" d="M126.48,32.58c-.21.18-.42.31-.61.38-.2.07-.41.11-.63.11-.37,0-.65-.09-.85-.27-.2-.18-.3-.41-.3-.69,0-.17.04-.32.11-.45.08-.14.17-.25.29-.33s.26-.15.41-.19c.11-.03.28-.06.51-.09.46-.06.8-.12,1.02-.2,0-.08,0-.13,0-.15,0-.23-.05-.4-.16-.49-.15-.13-.36-.19-.65-.19-.27,0-.47.05-.6.14s-.22.26-.28.5l-.56-.08c.05-.24.13-.43.25-.58s.28-.26.5-.34c.22-.08.47-.12.76-.12s.52.03.7.1c.18.07.31.15.4.26s.14.23.18.39c.02.1.03.27.03.53v.76c0,.53.01.87.04,1.01s.07.28.14.4h-.6c-.06-.12-.1-.26-.11-.42ZM126.43,31.3c-.21.08-.52.16-.93.22-.24.03-.4.07-.5.11-.1.04-.17.1-.23.19-.05.08-.08.17-.08.27,0,.15.06.28.17.38s.28.15.51.15.42-.05.59-.14c.17-.1.3-.23.38-.4.06-.13.09-.32.09-.57v-.21Z"/>
    <path class="cls-1" d="M127.92,33v-3.37h.51v.48c.25-.37.61-.56,1.07-.56.2,0,.39.04.56.11.17.07.3.17.38.29.08.12.14.26.18.42.02.11.03.29.03.56v2.07h-.57v-2.05c0-.23-.02-.41-.07-.52-.04-.12-.12-.21-.24-.28s-.25-.1-.4-.1c-.24,0-.45.08-.63.23-.18.15-.26.45-.26.88v1.84h-.57Z"/>
    <path class="cls-1" d="M132.81,32.49l.08.5c-.16.03-.3.05-.43.05-.21,0-.37-.03-.48-.1-.11-.07-.19-.15-.24-.26s-.07-.33-.07-.67v-1.94h-.42v-.44h.42v-.83l.57-.34v1.18h.57v.44h-.57v1.97c0,.16,0,.27.03.31s.05.08.1.11c.05.03.11.04.19.04.06,0,.15,0,.25-.02Z"/>
    <path class="cls-1" d="M133.18,31.31c0-.62.17-1.09.52-1.39.29-.25.64-.37,1.06-.37.46,0,.84.15,1.14.46s.44.72.44,1.26c0,.43-.07.77-.2,1.02-.13.25-.32.44-.57.58-.25.14-.52.21-.81.21-.47,0-.85-.15-1.14-.45-.29-.3-.44-.74-.44-1.31ZM133.77,31.31c0,.43.09.75.28.97s.43.32.71.32.52-.11.71-.32c.19-.22.28-.54.28-.99,0-.42-.09-.73-.28-.95s-.42-.32-.71-.32-.52.11-.71.32-.28.54-.28.97Z"/>
    <path class="cls-1" d="M137.04,33v-3.37h.51v.48c.25-.37.61-.56,1.07-.56.2,0,.39.04.56.11.17.07.3.17.38.29.08.12.14.26.18.42.02.11.03.29.03.56v2.07h-.57v-2.05c0-.23-.02-.41-.07-.52-.04-.12-.12-.21-.24-.28s-.25-.1-.4-.1c-.24,0-.45.08-.63.23-.18.15-.26.45-.26.88v1.84h-.57Z"/>
    <path class="cls-1" d="M140.45,31.99l.56-.09c.03.23.12.4.27.52.15.12.35.18.61.18s.46-.05.58-.16.19-.23.19-.38c0-.13-.06-.23-.17-.3-.08-.05-.27-.12-.58-.19-.42-.11-.71-.2-.87-.27-.16-.08-.28-.18-.37-.32-.08-.14-.13-.29-.13-.45,0-.15.03-.29.1-.42s.16-.23.28-.32c.09-.07.21-.12.36-.17s.32-.07.49-.07c.26,0,.5.04.7.11.2.08.35.18.44.31.09.13.16.3.2.52l-.56.08c-.03-.17-.1-.31-.22-.41s-.29-.15-.52-.15c-.26,0-.45.04-.56.13-.11.09-.17.19-.17.3,0,.07.02.14.07.2.05.06.12.11.22.15.06.02.23.07.5.15.4.11.69.2.85.27s.29.17.38.3.14.29.14.49-.06.37-.17.54c-.11.17-.27.3-.48.39-.21.09-.45.14-.71.14-.44,0-.77-.09-1-.27s-.38-.45-.44-.81Z"/>
    <path class="cls-1" d="M145.83,33v-4.65h1.75c.36,0,.64.05.86.14s.38.24.5.44.18.4.18.61c0,.2-.05.39-.16.56-.11.18-.27.32-.49.43.28.08.5.22.65.42.15.2.23.43.23.71,0,.22-.05.42-.14.61-.09.19-.21.33-.34.43s-.31.18-.51.23-.45.08-.75.08h-1.77ZM146.45,30.3h1.01c.27,0,.47-.02.59-.05.16-.05.27-.12.35-.23.08-.11.12-.24.12-.41,0-.15-.04-.29-.11-.41-.07-.12-.18-.2-.32-.24s-.37-.06-.71-.06h-.93v1.41ZM146.45,32.45h1.16c.2,0,.34,0,.42-.02.14-.03.26-.07.36-.13.1-.06.17-.15.24-.26.06-.11.09-.24.09-.39,0-.17-.04-.32-.13-.45s-.21-.22-.37-.27-.38-.08-.68-.08h-1.08v1.6Z"/>
    <path class="cls-1" d="M152.35,32.58c-.21.18-.42.31-.61.38-.2.07-.41.11-.63.11-.37,0-.65-.09-.85-.27-.2-.18-.3-.41-.3-.69,0-.17.04-.32.11-.45.08-.14.17-.25.29-.33s.26-.15.41-.19c.11-.03.28-.06.51-.09.46-.06.8-.12,1.02-.2,0-.08,0-.13,0-.15,0-.23-.05-.4-.16-.49-.15-.13-.36-.19-.65-.19-.27,0-.47.05-.6.14s-.22.26-.28.5l-.56-.08c.05-.24.13-.43.25-.58s.28-.26.5-.34c.22-.08.47-.12.76-.12s.52.03.7.1c.18.07.31.15.4.26s.14.23.18.39c.02.1.03.27.03.53v.76c0,.53.01.87.04,1.01s.07.28.14.4h-.6c-.06-.12-.1-.26-.11-.42ZM152.3,31.3c-.21.08-.52.16-.93.22-.24.03-.4.07-.5.11-.1.04-.17.1-.23.19-.05.08-.08.17-.08.27,0,.15.06.28.17.38s.28.15.51.15.42-.05.59-.14c.17-.1.3-.23.38-.4.06-.13.09-.32.09-.57v-.21Z"/>
    <path class="cls-1" d="M153.56,31.99l.56-.09c.03.23.12.4.27.52.15.12.35.18.61.18s.46-.05.58-.16.19-.23.19-.38c0-.13-.06-.23-.17-.3-.08-.05-.27-.12-.58-.19-.42-.11-.71-.2-.87-.27-.16-.08-.28-.18-.37-.32-.08-.14-.13-.29-.13-.45,0-.15.03-.29.1-.42s.16-.23.28-.32c.09-.07.21-.12.36-.17s.32-.07.49-.07c.26,0,.5.04.7.11.2.08.35.18.44.31.09.13.16.3.2.52l-.56.08c-.03-.17-.1-.31-.22-.41s-.29-.15-.52-.15c-.26,0-.45.04-.56.13-.11.09-.17.19-.17.3,0,.07.02.14.07.2.05.06.12.11.22.15.06.02.23.07.5.15.4.11.69.2.85.27s.29.17.38.3.14.29.14.49-.06.37-.17.54c-.11.17-.27.3-.48.39-.21.09-.45.14-.71.14-.44,0-.77-.09-1-.27s-.38-.45-.44-.81Z"/>
    <path class="cls-1" d="M159.37,31.91l.59.07c-.09.35-.27.61-.52.8-.25.19-.57.29-.96.29-.49,0-.88-.15-1.17-.46-.29-.3-.43-.73-.43-1.28s.15-1.01.44-1.32.67-.47,1.14-.47.82.15,1.1.46c.29.31.43.74.43,1.29,0,.03,0,.08,0,.15h-2.51c.02.37.13.65.31.85.19.2.42.29.7.29.21,0,.39-.06.54-.17.15-.11.27-.29.35-.53ZM157.5,30.99h1.88c-.03-.28-.1-.5-.22-.64-.18-.22-.42-.33-.71-.33-.26,0-.48.09-.66.26-.18.18-.28.41-.3.71Z"/>
    <path class="cls-1" d="M160.69,33v-4.65h.57v4.65h-.57Z"/>
    <path class="cls-1" d="M161.95,31.6v-.57h1.76v.57h-1.76Z"/>
    <path class="cls-1" d="M164.23,31.5l.58-.05c.03.23.09.42.19.57.1.15.26.27.47.36.21.09.45.14.71.14.23,0,.44-.04.62-.1s.31-.17.4-.29.13-.25.13-.4-.04-.27-.13-.38-.22-.2-.42-.27c-.12-.05-.4-.12-.83-.23-.43-.1-.73-.2-.9-.29-.22-.12-.39-.26-.5-.43s-.16-.37-.16-.58c0-.23.07-.45.2-.66.13-.2.33-.36.58-.46.26-.11.54-.16.85-.16.34,0,.65.06.91.17.26.11.47.27.61.49.14.22.22.46.23.73l-.59.04c-.03-.29-.14-.52-.32-.67-.18-.15-.45-.23-.81-.23s-.64.07-.81.2c-.17.14-.26.3-.26.49,0,.17.06.3.18.41.12.11.43.22.93.33s.84.21,1.03.3c.27.12.47.28.6.47s.19.41.19.66-.07.48-.21.7c-.14.22-.35.39-.61.51s-.56.18-.9.18c-.42,0-.77-.06-1.06-.18-.28-.12-.51-.31-.67-.55-.16-.25-.25-.52-.26-.84Z"/>
    <path class="cls-1" d="M169.98,32.49l.08.5c-.16.03-.3.05-.43.05-.21,0-.37-.03-.48-.1-.11-.07-.19-.15-.24-.26s-.07-.33-.07-.67v-1.94h-.42v-.44h.42v-.83l.57-.34v1.18h.57v.44h-.57v1.97c0,.16,0,.27.03.31s.05.08.1.11c.05.03.11.04.19.04.06,0,.15,0,.25-.02Z"/>
    <path class="cls-1" d="M172.76,32.58c-.21.18-.42.31-.61.38-.2.07-.41.11-.63.11-.37,0-.65-.09-.85-.27-.2-.18-.3-.41-.3-.69,0-.17.04-.32.11-.45.08-.14.17-.25.29-.33s.26-.15.41-.19c.11-.03.28-.06.51-.09.46-.06.8-.12,1.02-.2,0-.08,0-.13,0-.15,0-.23-.05-.4-.16-.49-.15-.13-.36-.19-.65-.19-.27,0-.47.05-.6.14s-.22.26-.28.5l-.56-.08c.05-.24.13-.43.25-.58s.28-.26.5-.34c.22-.08.47-.12.76-.12s.52.03.7.1c.18.07.31.15.4.26s.14.23.18.39c.02.1.03.27.03.53v.76c0,.53.01.87.04,1.01s.07.28.14.4h-.6c-.06-.12-.1-.26-.11-.42ZM172.71,31.3c-.21.08-.52.16-.93.22-.24.03-.4.07-.5.11-.1.04-.17.1-.23.19-.05.08-.08.17-.08.27,0,.15.06.28.17.38s.28.15.51.15.42-.05.59-.14c.17-.1.3-.23.38-.4.06-.13.09-.32.09-.57v-.21Z"/>
    <path class="cls-1" d="M176.39,33v-.43c-.21.33-.53.5-.94.5-.27,0-.52-.07-.74-.22-.23-.15-.4-.35-.52-.62-.12-.27-.19-.57-.19-.92s.06-.64.17-.92c.11-.27.28-.48.5-.63.22-.15.48-.22.75-.22.2,0,.38.04.54.13.16.09.29.2.39.33v-1.67h.57v4.65h-.53ZM174.58,31.31c0,.43.09.75.27.97.18.21.4.32.64.32s.46-.1.64-.31c.17-.2.26-.52.26-.94,0-.46-.09-.8-.27-1.02s-.4-.32-.66-.32-.47.1-.64.31c-.17.21-.26.53-.26.98Z"/>
    <path class="cls-1" d="M179.09,32.49l.08.5c-.16.03-.3.05-.43.05-.21,0-.37-.03-.48-.1-.11-.07-.19-.15-.24-.26s-.07-.33-.07-.67v-1.94h-.42v-.44h.42v-.83l.57-.34v1.18h.57v.44h-.57v1.97c0,.16,0,.27.03.31s.05.08.1.11c.05.03.11.04.19.04.06,0,.15,0,.25-.02Z"/>
  </g>
  <g>
    <path class="cls-1" d="M43.65,46.45l1.27-.12c.08.42.23.74.46.94.23.2.55.3.94.3.42,0,.73-.09.95-.27.21-.18.32-.38.32-.62,0-.15-.04-.28-.13-.39-.09-.11-.25-.2-.47-.28-.15-.05-.5-.15-1.04-.28-.7-.17-1.19-.39-1.47-.64-.4-.35-.59-.79-.59-1.3,0-.33.09-.63.28-.92.19-.29.45-.5.8-.65.35-.15.77-.22,1.27-.22.81,0,1.42.18,1.83.53.41.35.62.83.64,1.42l-1.3.06c-.06-.33-.18-.57-.36-.71-.18-.15-.46-.22-.82-.22s-.67.08-.89.23c-.14.1-.21.23-.21.4,0,.15.06.28.19.39.16.14.56.28,1.2.43s1.1.3,1.4.46c.3.16.54.38.71.66.17.28.26.62.26,1.03,0,.37-.1.71-.31,1.04s-.5.56-.87.72c-.38.16-.84.24-1.4.24-.81,0-1.44-.19-1.88-.56s-.7-.93-.78-1.65Z"/>
    <path class="cls-1" d="M52.11,43.88v.98h-.84v1.88c0,.38,0,.6.02.67.02.06.05.11.11.16.06.04.13.06.21.06.11,0,.28-.04.5-.12l.11.96c-.29.12-.61.18-.98.18-.22,0-.42-.04-.6-.11-.18-.07-.31-.17-.39-.29-.08-.12-.14-.28-.17-.48-.03-.14-.04-.43-.04-.87v-2.03h-.57v-.98h.57v-.93l1.24-.72v1.65h.84Z"/>
    <path class="cls-1" d="M53.89,45.3l-1.12-.2c.13-.45.34-.79.65-1s.76-.33,1.37-.33c.55,0,.96.07,1.23.2.27.13.46.3.57.5.11.2.16.57.16,1.1v1.44c-.01.41,0,.71.05.91.04.19.11.4.22.63h-1.22c-.03-.08-.07-.2-.12-.36-.02-.07-.04-.12-.04-.15-.21.21-.44.36-.68.46s-.5.15-.77.15c-.48,0-.86-.13-1.14-.39-.28-.26-.42-.59-.42-.99,0-.26.06-.5.19-.71.13-.21.3-.37.53-.47.23-.11.55-.21.98-.29.58-.11.98-.21,1.2-.3v-.12c0-.24-.06-.41-.18-.51-.12-.1-.34-.15-.66-.15-.22,0-.39.04-.51.13-.12.09-.22.24-.3.46ZM55.55,46.3c-.16.05-.41.12-.75.19s-.57.15-.67.22c-.16.11-.24.26-.24.44s.06.32.19.45.29.19.49.19c.22,0,.44-.07.64-.22.15-.11.25-.25.29-.41.03-.11.05-.31.05-.6v-.25Z"/>
    <path class="cls-1" d="M60.12,43.88v.98h-.84v1.88c0,.38,0,.6.02.67.02.06.05.11.11.16.06.04.13.06.21.06.11,0,.28-.04.5-.12l.11.96c-.29.12-.61.18-.98.18-.22,0-.42-.04-.6-.11-.18-.07-.31-.17-.39-.29-.08-.12-.14-.28-.17-.48-.03-.14-.04-.43-.04-.87v-2.03h-.57v-.98h.57v-.93l1.24-.72v1.65h.84Z"/>
    <path class="cls-1" d="M60.97,43.24v-1.14h1.23v1.14h-1.23ZM60.97,48.54v-4.67h1.23v4.67h-1.23Z"/>
    <path class="cls-1" d="M63.04,47.21l1.24-.19c.05.24.16.42.32.55.16.12.39.19.68.19.32,0,.56-.06.72-.18.11-.08.16-.19.16-.33,0-.09-.03-.17-.09-.23-.06-.06-.2-.11-.41-.16-1-.22-1.63-.42-1.89-.6-.37-.25-.55-.6-.55-1.05,0-.4.16-.74.48-1.02s.81-.41,1.49-.41,1.11.1,1.42.31.52.52.64.92l-1.16.22c-.05-.18-.14-.32-.28-.42s-.34-.15-.6-.15c-.33,0-.56.05-.7.14-.09.06-.14.15-.14.25,0,.09.04.16.12.22.11.08.5.2,1.15.35s1.12.33,1.38.55c.26.22.39.53.39.92,0,.43-.18.8-.54,1.1s-.89.46-1.59.46c-.64,0-1.14-.13-1.51-.39-.37-.26-.61-.61-.73-1.05Z"/>
    <path class="cls-1" d="M70.62,43.88v.98h-.84v1.88c0,.38,0,.6.02.67.02.06.05.11.11.16.06.04.13.06.21.06.11,0,.28-.04.5-.12l.11.96c-.29.12-.61.18-.98.18-.22,0-.42-.04-.6-.11-.18-.07-.31-.17-.39-.29-.08-.12-.14-.28-.17-.48-.03-.14-.04-.43-.04-.87v-2.03h-.57v-.98h.57v-.93l1.24-.72v1.65h.84Z"/>
    <path class="cls-1" d="M71.48,43.24v-1.14h1.23v1.14h-1.23ZM71.48,48.54v-4.67h1.23v4.67h-1.23Z"/>
    <path class="cls-1" d="M73.54,47.21l1.24-.19c.05.24.16.42.32.55.16.12.39.19.68.19.32,0,.56-.06.72-.18.11-.08.16-.19.16-.33,0-.09-.03-.17-.09-.23-.06-.06-.2-.11-.41-.16-1-.22-1.63-.42-1.89-.6-.37-.25-.55-.6-.55-1.05,0-.4.16-.74.48-1.02s.81-.41,1.49-.41,1.11.1,1.42.31.52.52.64.92l-1.16.22c-.05-.18-.14-.32-.28-.42s-.34-.15-.6-.15c-.33,0-.56.05-.7.14-.09.06-.14.15-.14.25,0,.09.04.16.12.22.11.08.5.2,1.15.35s1.12.33,1.38.55c.26.22.39.53.39.92,0,.43-.18.8-.54,1.1s-.89.46-1.59.46c-.64,0-1.14-.13-1.51-.39-.37-.26-.61-.61-.73-1.05Z"/>
    <path class="cls-1" d="M83.05,45.26l-1.22.22c-.04-.24-.13-.43-.28-.55-.14-.12-.33-.18-.56-.18-.31,0-.55.11-.74.32s-.27.57-.27,1.07c0,.55.09.94.28,1.17.19.23.44.34.75.34.23,0,.43-.07.58-.2s.25-.36.32-.69l1.21.21c-.13.56-.37.98-.73,1.26s-.84.43-1.44.43c-.68,0-1.23-.22-1.63-.65-.41-.43-.61-1.03-.61-1.79s.2-1.37.61-1.8c.41-.43.96-.64,1.65-.64.57,0,1.02.12,1.36.37s.58.62.72,1.12Z"/>
    <path class="cls-1" d="M85.22,42.1v2.37c.4-.47.87-.7,1.43-.7.28,0,.54.05.77.16s.4.24.52.4.19.35.24.54.06.51.06.93v2.74h-1.23v-2.47c0-.49-.02-.8-.07-.93s-.13-.24-.25-.31c-.12-.08-.27-.12-.45-.12-.21,0-.39.05-.55.15s-.28.25-.35.45c-.07.2-.11.5-.11.89v2.34h-1.23v-6.44h1.23Z"/>
    <path class="cls-1" d="M92.19,47.06l1.23.21c-.16.45-.41.79-.75,1.03-.34.24-.77.35-1.28.35-.81,0-1.41-.27-1.8-.8-.31-.42-.46-.96-.46-1.61,0-.77.2-1.38.61-1.82s.92-.66,1.53-.66c.69,0,1.24.23,1.64.69.4.46.59,1.16.58,2.11h-3.09c0,.37.11.65.3.85.19.2.43.31.71.31.19,0,.36-.05.49-.16s.23-.28.3-.51ZM92.26,45.81c0-.36-.1-.63-.28-.82-.18-.19-.39-.28-.64-.28-.27,0-.49.1-.67.29s-.26.46-.26.8h1.85Z"/>
    <path class="cls-1" d="M94.06,47.21l1.24-.19c.05.24.16.42.32.55.16.12.39.19.68.19.32,0,.56-.06.72-.18.11-.08.16-.19.16-.33,0-.09-.03-.17-.09-.23-.06-.06-.2-.11-.41-.16-1-.22-1.63-.42-1.89-.6-.37-.25-.55-.6-.55-1.05,0-.4.16-.74.48-1.02s.81-.41,1.49-.41,1.11.1,1.42.31.52.52.64.92l-1.16.22c-.05-.18-.14-.32-.28-.42s-.34-.15-.6-.15c-.33,0-.56.05-.7.14-.09.06-.14.15-.14.25,0,.09.04.16.12.22.11.08.5.2,1.15.35s1.12.33,1.38.55c.26.22.39.53.39.92,0,.43-.18.8-.54,1.1s-.89.46-1.59.46c-.64,0-1.14-.13-1.51-.39-.37-.26-.61-.61-.73-1.05Z"/>
    <path class="cls-1" d="M107.82,48.54h-1.42l-.56-1.46h-2.58l-.53,1.46h-1.38l2.51-6.44h1.38l2.58,6.44ZM105.42,45.99l-.89-2.39-.87,2.39h1.76Z"/>
    <path class="cls-1" d="M108.4,43.88h1.14v.64c.41-.5.89-.74,1.45-.74.3,0,.56.06.78.18s.4.31.54.56c.21-.25.43-.44.66-.56s.49-.18.76-.18c.34,0,.63.07.87.21s.41.34.53.61c.08.2.13.52.13.97v2.98h-1.23v-2.67c0-.46-.04-.76-.13-.9-.11-.18-.29-.26-.53-.26-.17,0-.34.05-.49.16s-.26.26-.33.46c-.07.2-.1.53-.1.96v2.24h-1.23v-2.56c0-.45-.02-.75-.07-.88s-.11-.23-.2-.29c-.09-.06-.22-.1-.38-.1-.19,0-.36.05-.51.15s-.26.25-.33.44c-.07.19-.1.51-.1.96v2.27h-1.23v-4.67Z"/>
    <path class="cls-1" d="M118.64,43.88v.98h-.84v1.88c0,.38,0,.6.02.67.02.06.05.11.11.16.06.04.13.06.21.06.11,0,.28-.04.5-.12l.11.96c-.29.12-.61.18-.98.18-.22,0-.42-.04-.6-.11-.18-.07-.31-.17-.39-.29-.08-.12-.14-.28-.17-.48-.03-.14-.04-.43-.04-.87v-2.03h-.57v-.98h.57v-.93l1.24-.72v1.65h.84Z"/>
  </g>
  <g>
    <path class="cls-1" d="M22.28,39.15c-.57,0-.54.76-.02.76h7.73c.52,0,.54-.76-.02-.76h-7.69Z"/>
    <path class="cls-1" d="M22.62,36.46c-.57,0-.54.76-.02.76h6.94c.52,0,.54-.76-.02-.76h-6.9Z"/>
    <path class="cls-1" d="M21.8,37.58c-.87,0-.89,1.22-.01,1.22h8.61c.88,0,.86-1.22-.01-1.22h-8.59Z"/>
  </g>
  <polygon class="cls-1" points="22.59 40.27 29.52 40.27 31.47 51.03 28.19 48.56 26.05 51.03 23.89 48.56 20.61 51.01 22.59 40.27"/>
  <path class="cls-1" d="M21.54,32.45s.88.19.85,1.38c0,0,.02,1.86-2.22,1.91,0,0-3.26.11-3.17-3.23,0,0-.2-3.97,5.13-4.15,0,0,3.56-.19,5.5,3.08,0,0,1.28,2.24,1.22,4.69h-5.5c.22-.56.28-1.82.28-1.82-.15-2.8-2.28-2.67-2.28-2.67-1.67-.09-1.76,1.32-1.76,1.32,0,0-.07.91.69.93,0,0,.48,0,.48-.4,0,0,0-.29-.36-.29,0,0-.22.01-.25.13,0,0-.09-.96.96-.96,0,0,.21,0,.43.07"/>
  <rect class="cls-1" x="37.15" y="17.01" width="1.12" height="39.68"/>
</svg>